<svg xmlns="http://www.w3.org/2000/svg" viewBox="0 0 512 512">
  <defs>
    <linearGradient id="g" x1="0" y1="0" x2="1" y2="1">
      <stop offset="0%" stop-color="#8b7fe8"/>
      <stop offset="100%" stop-color="#4a3f8a"/>
    </linearGradient>
  </defs>
  <rect width="512" height="512" rx="112" fill="#170a30"/>
  <circle cx="256" cy="256" r="150" fill="url(#g)"/>
  <path d="M180 216a44 44 0 0 1 44-44h26a22 22 0 0 0 20-12l13-26a22 22 0 0 1 20-12h106a22 22 0 0 1 20 12l13 26a22 22 0 0 0 20 12h26a44 44 0 0 1 44 44v198a44 44 0 0 1-44 44H224a44 44 0 0 1-44-44V216Z" fill="none" stroke="#f5f2ff" stroke-width="14" transform="translate(-8,-30) scale(0.86)" />
  <circle cx="256" cy="286" r="60" fill="none" stroke="#f5f2ff" stroke-width="14"/>
</svg>